# xmcd
#
# Track frame offsets:
#	150
#	11100
#	21600
#	35225
#	46600
#	57675
#	70575
#	80250
#	90215
#	100532
#	111675
#	123392
#	134492
#	149267
#	162767
#	175580
#	187292
#	198547
#	207992
#	220442
#	229667
#	241097
#	255587
#	268467
#	283242
#	294592
#	303842
#	313292
#
# Disc length: 4304 seconds
#
# Revision: 0
# Processed by: cddbd v1.5.2PL0 Copyright (c) Steve Scherf et al.
# Submitted via: EasyCDDAExtractor 16.0.6.1
#
DISCID=af10ce1c
DTITLE=Various Artist - Early Girls - Vol. 1
DYEAR=1995
DGENRE=Blues
TTITLE0=The Exciters - Do Wah Diddy
TTITLE1=Betty Everett - You're No Good
TTITLE2=Shirley Ellis - The Name Game
TTITLE3=The Cookies - Chains
TTITLE4=Carole King - It Might As Well Rain Until September
TTITLE5=Earl-Jean - I'm Into Something Good
TTITLE6=Skeeter Davis - I Can't Stay Mad At You
TTITLE7=Little Peggy March - I Wish I Were a Princess
TTITLE8=Linda Scott - I've Told Every Little Star
TTITLE9=Janie Grant - Triangle
TTITLE10=Toni Fisher - West Of The Wall
TTITLE11=Dodie Stevens - Pink Shoe Laces
TTITLE12=The Sensations - Music, Music, Music
TTITLE13=The Hearts - Dear Abby
TTITLE14=Reparata And The Delrons - Whenever A Teenager Cries
TTITLE15=The Murmaids - Popsicles And Icicles
TTITLE16=Robin Ward - Wonderful Summer
TTITLE17=The Paris Sisters - I Love How You Love Me
TTITLE18=Bonnie Guitar - Dark Moon
TTITLE19=The Aquatones - You
TTITLE20=The Angels - 'Til
TTITLE21=Kathy Young - The Great Pretender
TTITLE22=Rosie and The Originals - Angel Baby
TTITLE23=The Teen Queens - Eddie My Love
TTITLE24=The Chantels - He's Gone
TTITLE25=The Shirelles - Dedicated To The One I Love
TTITLE26=The Blossoms - Son - In - Law
TTITLE27=The Essex - Easier Said Than Done
EXTD=
EXTT0=
EXTT1=
EXTT2=
EXTT3=
EXTT4=
EXTT5=
EXTT6=
EXTT7=
EXTT8=
EXTT9=
EXTT10=
EXTT11=
EXTT12=
EXTT13=
EXTT14=
EXTT15=
EXTT16=
EXTT17=
EXTT18=
EXTT19=
EXTT20=
EXTT21=
EXTT22=
EXTT23=
EXTT24=
EXTT25=
EXTT26=
EXTT27=
PLAYORDER=
